<?xml version="1.0" standalone="no"?><!DOCTYPE svg PUBLIC "-//W3C//DTD SVG 1.1//EN" "http://www.w3.org/Graphics/SVG/1.1/DTD/svg11.dtd"><svg t="1669645845658" class="icon" viewBox="0 0 1024 1024" version="1.1" xmlns="http://www.w3.org/2000/svg" p-id="28817" xmlns:xlink="http://www.w3.org/1999/xlink" width="200" height="200"><path d="M921.084278 0H102.915722A103.030073 103.030073 0 0 0 0 102.915722v818.168556a103.030073 103.030073 0 0 0 102.915722 102.915722h818.168556a103.041508 103.041508 0 0 0 102.915722-102.915722V102.915722a103.030073 103.030073 0 0 0-102.915722-102.915722z m-187.535316 423.23519L499.392824 657.368457a40.022781 40.022781 0 0 1-52.281187 3.704966 40.903282 40.903282 0 0 1-4.642642-3.979407L290.451038 505.121799a40.022781 40.022781 0 0 1 0-56.603647 40.022781 40.022781 0 0 1 56.603647 0l124.00201 123.990575 205.831444-205.831444a40.022781 40.022781 0 0 1 56.603648 0 40.022781 40.022781 0 0 1 0.04574 56.557907z" p-id="28818" fill="#bfbfbf"></path></svg>